HIERARCHY
ROOT Hips
{
    OFFSET 0.000000 0.000000 0.000000
    CHANNELS 6 Xposition Yposition Zposition Zrotation Xrotation Yrotation
    JOINT Spine
    {
        OFFSET 0.000001 7.292995 0.000000
        CHANNELS 3 Zrotation Xrotation Yrotation
        JOINT Spine1
        {
            OFFSET -0.000000 20.255388 0.000001
            CHANNELS 3 Zrotation Xrotation Yrotation
            JOINT Neck
            {
                OFFSET 0.000001 20.786594 0.000000
                CHANNELS 3 Zrotation Xrotation Yrotation
                JOINT Head
                {
                    OFFSET 0.000003 12.530788 1.776080
                    CHANNELS 3 Zrotation Xrotation Yrotation
                    End Site
                    {
                        OFFSET 0.000000 17.760757 0.000000
                    }
                }
            }
            JOINT LeftShoulder
            {
                OFFSET 3.550532 15.465697 -0.908801
                CHANNELS 3 Zrotation Xrotation Yrotation
                JOINT LeftArm
                {
                    OFFSET 12.513301 -0.000005 0.000001
                    CHANNELS 3 Zrotation Xrotation Yrotation
                    JOINT LeftForeArm
                    {
                        OFFSET 24.225992 0.000005 0.000000
                        CHANNELS 3 Zrotation Xrotation Yrotation
                        JOINT LeftHand
                        {
                            OFFSET 20.711395 -0.000004 0.000000
                            CHANNELS 3 Zrotation Xrotation Yrotation
                            JOINT LeftHandThumb1
                            {
                                OFFSET 2.121964 -2.411326 3.375861
                                CHANNELS 3 Zrotation Xrotation Yrotation
                                JOINT LeftHandThumb2
                                {
                                    OFFSET 2.803212 -0.000001 -0.000002
                                    CHANNELS 3 Zrotation Xrotation Yrotation
                                    JOINT LeftHandThumb3
                                    {
                                        OFFSET 2.395929 0.000000 0.000000
                                        CHANNELS 3 Zrotation Xrotation Yrotation
                                        End Site
                                        {
                                            OFFSET 2.127676 0.000000 0.000000
                                        }
                                    }
                                }
                            }
                            JOINT LeftHandIndex1
                            {
                                OFFSET 8.680776 0.000004 3.375861
                                CHANNELS 3 Zrotation Xrotation Yrotation
                                JOINT LeftHandIndex2
                                {
                                    OFFSET 4.218180 -0.000002 0.000001
                                    CHANNELS 3 Zrotation Xrotation Yrotation
                                    JOINT LeftHandIndex3
                                    {
                                        OFFSET 2.109090 0.000001 -0.000000
                                        CHANNELS 3 Zrotation Xrotation Yrotation
                                        End Site
                                        {
                                            OFFSET 1.872952 0.000000 0.000000
                                        }
                                    }
                                }
                            }
                            JOINT LeftHandMiddle1
                            {
                                OFFSET 8.680775 0.000001 1.118862
                                CHANNELS 3 Zrotation Xrotation Yrotation
                                JOINT LeftHandMiddle2
                                {
                                    OFFSET 4.640000 0.000002 -0.000000
                                    CHANNELS 3 Zrotation Xrotation Yrotation
                                    JOINT LeftHandMiddle3
                                    {
                                        OFFSET 2.530906 0.000005 0.000000
                                        CHANNELS 3 Zrotation Xrotation Yrotation
                                        End Site
                                        {
                                            OFFSET 2.247544 0.000000 0.000000
                                        }
                                    }
                                }
                            }
                            JOINT LeftHandRing1
                            {
                                OFFSET 8.198514 -0.000004 -1.118859
                                CHANNELS 3 Zrotation Xrotation Yrotation
                                JOINT LeftHandRing2
                                {
                                    OFFSET 4.218182 -0.000003 -0.000001
                                    CHANNELS 3 Zrotation Xrotation Yrotation
                                    JOINT LeftHandRing3
                                    {
                                        OFFSET 2.109086 0.000004 0.000001
                                        CHANNELS 3 Zrotation Xrotation Yrotation
                                        End Site
                                        {
                                            OFFSET 1.872952 0.000000 0.000000
                                        }
                                    }
                                }
                            }
                            JOINT LeftHandPinky1
                            {
                                OFFSET 7.716242 0.000005 -3.375859
                                CHANNELS 3 Zrotation Xrotation Yrotation
                                JOINT LeftHandPinky2
                                {
                                    OFFSET 3.374535 0.000004 0.000002
                                    CHANNELS 3 Zrotation Xrotation Yrotation
                                    JOINT LeftHandPinky3
                                    {
                                        OFFSET 1.687275 0.000002 -0.000001
                                        CHANNELS 3 Zrotation Xrotation Yrotation
                                        End Site
                                        {
                                            OFFSET 1.498360 0.000000 0.000000
                                        }
                                    }
                                }
                            }
                        }
                    }
                }
            }
            JOINT RightShoulder
            {
                OFFSET -3.550531 15.465694 -0.908802
                CHANNELS 3 Zrotation Xrotation Yrotation
                JOINT RightArm
                {
                    OFFSET -12.513298 -0.000004 0.000001
                    CHANNELS 3 Zrotation Xrotation Yrotation
                    JOINT RightForeArm
                    {
                        OFFSET -24.225996 -0.000002 -0.000000
                        CHANNELS 3 Zrotation Xrotation Yrotation
                        JOINT RightHand
                        {
                            OFFSET -20.711401 0.000005 0.000001
                            CHANNELS 3 Zrotation Xrotation Yrotation
                            JOINT RightHandThumb1
                            {
                                OFFSET -2.121970 -2.411334 3.375861
                                CHANNELS 3 Zrotation Xrotation Yrotation
                                JOINT RightHandThumb2
                                {
                                    OFFSET -2.803210 0.000003 -0.000004
                                    CHANNELS 3 Zrotation Xrotation Yrotation
                                    JOINT RightHandThumb3
                                    {
                                        OFFSET -2.395930 -0.000001 0.000002
                                        CHANNELS 3 Zrotation Xrotation Yrotation
                                        End Site
                                        {
                                            OFFSET -2.127676 0.000000 0.000000
                                        }
                                    }
                                }
                            }
                            JOINT RightHandIndex1
                            {
                                OFFSET -8.680779 0.000001 3.375860
                                CHANNELS 3 Zrotation Xrotation Yrotation
                                JOINT RightHandIndex2
                                {
                                    OFFSET -4.218180 0.000000 -0.000000
                                    CHANNELS 3 Zrotation Xrotation Yrotation
                                    JOINT RightHandIndex3
                                    {
                                        OFFSET -2.109090 0.000001 -0.000000
                                        CHANNELS 3 Zrotation Xrotation Yrotation
                                        End Site
                                        {
                                            OFFSET -1.872952 0.000000 0.000000
                                        }
                                    }
                                }
                            }
                            JOINT RightHandMiddle1
                            {
                                OFFSET -8.680780 0.000001 1.118860
                                CHANNELS 3 Zrotation Xrotation Yrotation
                                JOINT RightHandMiddle2
                                {
                                    OFFSET -4.640000 -0.000002 0.000001
                                    CHANNELS 3 Zrotation Xrotation Yrotation
                                    JOINT RightHandMiddle3
                                    {
                                        OFFSET -2.530910 0.000001 -0.000000
                                        CHANNELS 3 Zrotation Xrotation Yrotation
                                        End Site
                                        {
                                            OFFSET -2.247544 0.000000 0.000000
                                        }
                                    }
                                }
                            }
                            JOINT RightHandRing1
                            {
                                OFFSET -8.198519 0.000005 -1.118860
                                CHANNELS 3 Zrotation Xrotation Yrotation
                                JOINT RightHandRing2
                                {
                                    OFFSET -4.218180 -0.000006 0.000000
                                    CHANNELS 3 Zrotation Xrotation Yrotation
                                    JOINT RightHandRing3
                                    {
                                        OFFSET -2.109090 0.000001 -0.000000
                                        CHANNELS 3 Zrotation Xrotation Yrotation
                                        End Site
                                        {
                                            OFFSET -1.872952 0.000000 0.000000
                                        }
                                    }
                                }
                            }
                            JOINT RightHandPinky1
                            {
                                OFFSET -7.716248 -0.000002 -3.375859
                                CHANNELS 3 Zrotation Xrotation Yrotation
                                JOINT RightHandPinky2
                                {
                                    OFFSET -3.374540 0.000000 0.000000
                                    CHANNELS 3 Zrotation Xrotation Yrotation
                                    JOINT RightHandPinky3
                                    {
                                        OFFSET -1.687270 0.000004 0.000001
                                        CHANNELS 3 Zrotation Xrotation Yrotation
                                        End Site
                                        {
                                            OFFSET -1.498360 0.000000 0.000000
                                        }
                                    }
                                }
                            }
                        }
                    }
                }
            }
        }
    }
    JOINT LeftUpLeg
    {
        OFFSET 8.880376 -0.000000 -0.000000
        CHANNELS 3 Zrotation Xrotation Yrotation
        JOINT LeftLeg
        {
            OFFSET -0.000001 -40.387405 -0.000001
            CHANNELS 3 Zrotation Xrotation Yrotation
            JOINT LeftFoot
            {
                OFFSET -0.000001 -36.911297 -0.000001
                CHANNELS 3 Zrotation Xrotation Yrotation
                JOINT LeftToeBase
                {
                    OFFSET -0.000002 -5.772240 13.320604
                    CHANNELS 3 Zrotation Xrotation Yrotation
                    End Site
                    {
                        OFFSET 0.000000 0.000000 3.552151
                    }
                }
            }
        }
    }
    JOINT RightUpLeg
    {
        OFFSET -8.880376 0.000000 0.000000
        CHANNELS 3 Zrotation Xrotation Yrotation
        JOINT RightLeg
        {
            OFFSET -0.000001 -40.387390 0.000000
            CHANNELS 3 Zrotation Xrotation Yrotation
            JOINT RightFoot
            {
                OFFSET 0.000002 -36.911297 -0.000001
                CHANNELS 3 Zrotation Xrotation Yrotation
                JOINT RightToeBase
                {
                    OFFSET 0.000001 -5.772238 13.320600
                    CHANNELS 3 Zrotation Xrotation Yrotation
                    End Site
                    {
                        OFFSET 0.000000 0.000000 3.552151
                    }
                }
            }
        }
    }
}
MOTION
Frames: 4
Frame Time: 0.013889
19.676805    84.045227    14.195591    0.266431    11.282845    2.156874    0.381371    -22.606873    0.992021    0.330222    15.422513    0.795035    -4.678896    -13.029332    -2.842576    -0.087415    2.750506    -1.821917    -2.738374    6.186832    -2.338735    -60.070881    41.621494    -13.867651    -5.560502    -18.178907    -17.330500    -9.248927    4.486153    6.052014    29.867809    35.430218    -42.215511    -12.490821    -0.251252    23.316198    -0.000000    0.000000    -0.000000    -7.155977    17.868696    -2.913606    -6.809108    0.000003    0.000004    -6.809105    -0.000004    0.000002    -5.643798    8.957084    -1.678360    -5.574754    -0.000002    -0.000000    -5.574765    0.000003    0.000000    -5.019060    -8.966059    -1.991981    -4.957578    0.000000    -0.000002    -4.957588    0.000000    -0.000001    -4.562845    -17.946573    -3.824264    -4.340404    -0.000001    -0.000000    -4.340398    0.000000    -0.000000    5.498981    6.196622    4.196149    59.041309    36.321743    12.944825    4.288968    -13.100634    18.308100    14.965583    5.423235    -12.001081    -38.373348    29.046762    44.137203    13.412439    -0.648397    -23.308952    -0.000000    0.000000    -0.000000    14.695311    17.447433    7.155356    14.005076    -0.000003    0.000000    14.005067    0.000004    0.000003    9.436655    8.880166    4.355998    9.322538    0.000006    0.000006    9.322519    -0.000000    -0.000003    7.067417    -8.932728    1.473439    6.981260    0.000002    0.000002    6.981263    0.000000    -0.000000    4.877654    -17.938953    2.246795    4.640000    0.000003    -0.000000    4.639986    -0.000002    0.000000    0.201974    -8.852962    8.482856    0.000000    4.440520    -0.000000    -5.156762    -2.969749    -11.023121    -0.000000    0.346668    0.000000    1.861527    -8.185946    -10.378592    -0.000000    2.640862    0.000000    9.121483    -5.097313    2.510566    -0.000000    2.259221    -0.000000    
19.655840    84.045479    14.159146    0.310871    11.261203    2.124651    0.377713    -22.572960    0.983905    0.355877    15.423544    0.781198    -4.784054    -13.026901    -2.813424    -0.100769    2.749133    -1.766997    -2.738810    6.169077    -2.378932    -59.965126    41.546215    -13.931906    -5.475906    -18.081526    -17.164457    -9.420321    4.372259    6.239542    29.829990    35.458336    -42.187443    -12.550985    -0.277176    23.315916    -0.000000    0.000000    -0.000000    -7.274379    17.864319    -2.905853    -6.921882    0.000005    -0.000001    -6.921881    -0.000004    0.000003    -5.770047    8.955146    -1.673000    -5.699481    0.000004    -0.000003    -5.699471    -0.000000    0.000003    -5.151364    -8.964242    -1.995642    -5.088273    0.000002    0.000001    -5.088286    0.000001    -0.000002    -4.706469    -17.943159    -3.834595    -4.477085    -0.000001    -0.000001    -4.477075    0.000002    0.000001    5.515011    6.198367    4.257390    58.538567    36.656086    13.139319    4.002778    -12.074110    18.496571    15.918004    6.263247    -11.951376    -38.184349    29.200794    44.067879    13.514245    -0.692261    -23.307777    -0.000000    0.000000    -0.000000    15.062384    17.419544    7.165836    14.356399    0.000003    -0.000004    14.356397    -0.000001    0.000004    9.554587    8.877158    4.398025    9.439077    0.000008    0.000008    9.439089    -0.000003    0.000000    7.066566    -8.932744    1.536165    6.980424    -0.000003    0.000002    6.980419    0.000003    -0.000007    4.753416    -17.942026    2.334242    4.521770    0.000003    -0.000000    4.521764    -0.000004    -0.000003    0.177021    -8.864938    8.500910    0.000000    4.463206    -0.000002    -5.140963    -2.941566    -11.014158    -0.000001    0.340172    -0.000000    1.819780    -8.232527    -10.348461    0.000000    2.746747    -0.000000    9.226420    -5.243302    2.524169    -0.000002    2.269693    0.000000    
19.618689    84.043205    14.121209    0.379668    11.242090    2.060603    0.374419    -22.549189    0.976300    0.367775    15.427290    0.771376    -4.905895    -13.011823    -2.779695    -0.103792    2.745403    -1.704995    -2.729039    6.133153    -2.400242    -59.819309    41.426895    -14.005898    -5.356407    -17.961376    -16.911652    -9.747675    4.196381    6.415490    29.928144    35.386261    -42.228096    -12.552084    -0.277652    23.315922    -0.000000    0.000000    -0.000000    -7.409833    17.859219    -2.921971    -7.050917    0.000003    0.000002    -7.050925    0.000004    -0.000008    -5.922346    8.952751    -1.678124    -5.849941    -0.000007    -0.000000    -5.849941    -0.000000    0.000002    -5.314512    -8.961945    -2.031266    -5.249440    0.000001    0.000001    -5.249457    0.000001    -0.000002    -4.887074    -17.938715    -3.910644    -4.648945    -0.000001    0.000001    -4.648961    0.000001    -0.000001    5.513588    6.246569    4.317608    57.854454    37.108612    13.375353    3.630143    -10.657363    18.934750    17.267914    7.536453    -11.622576    -37.878254    29.454439    43.933743    13.674878    -0.761447    -23.305740    -0.000000    0.000000    -0.000000    15.518424    17.383970    7.252398    14.792994    -0.000002    0.000000    14.792994    0.000000    0.000003    9.690782    8.873636    4.488489    9.573709    -0.000002    -0.000003    9.573694    0.000005    -0.000007    7.049986    -8.933061    1.609687    6.964042    -0.000000    -0.000003    6.964044    -0.000003    0.000004    4.577550    -17.946226    2.432251    4.354398    -0.000001    0.000002    4.354398    -0.000003    -0.000002    0.145980    -8.881298    8.540354    0.000000    4.499371    -0.000001    -5.133294    -2.916310    -10.999321    0.000000    0.327119    -0.000000    1.767778    -8.291919    -10.282643    0.000000    2.870014    -0.000000    9.389868    -5.459508    2.550121    -0.000000    2.255516    -0.000000    
19.592682    84.045143    14.103055    0.438945    11.238146    2.000393    0.366410    -22.555214    0.955178    0.386140    15.412006    0.747813    -5.006245    -12.965645    -2.747602    -0.116146    2.754744    -1.651774    -2.719987    6.111794    -2.387864    -59.756233    41.307667    -14.031770    -5.290485    -17.921429    -16.748095    -10.025684    4.062920    6.509718    30.049850    35.295967    -42.301292    -12.526910    -0.266810    23.316042    -0.000000    0.000000    -0.000000    -7.559408    17.853489    -2.896011    -7.193398    0.000002    0.000002    -7.193412    0.000004    -0.000003    -6.069542    8.950376    -1.665179    -5.995368    0.000000    -0.000002    -5.995356    -0.000002    0.000003    -5.463204    -8.959787    -2.045548    -5.396347    0.000000    -0.000001    -5.396344    -0.000002    -0.000000    -5.042959    -17.934746    -3.940891    -4.797327    -0.000000    0.000000    -4.797319    -0.000000    0.000000    5.521738    6.247000    4.326537    57.331085    37.399040    13.569718    3.414880    -9.764850    19.383259    18.164812    8.429032    -11.196054    -37.652111    29.632944    43.865784    13.790669    -0.811308    -23.304152    -0.000000    0.000000    -0.000000    15.787807    17.362463    7.397372    15.050982    -0.000008    0.000001    15.050982    0.000004    -0.000007    9.757754    8.871891    4.590855    9.639915    0.000004    0.000007    9.639891    -0.000002    0.000000    7.019935    -8.933631    1.683651    6.934350    0.000000    0.000003    6.934350    -0.000004    -0.000007    4.445581    -17.949286    2.548848    4.228810    0.000002    0.000002    4.228806    0.000000    -0.000000    0.113942    -8.891819    8.573998    -0.000000    4.521070    -0.000000    -5.119548    -2.901930    -10.984891    -0.000001    0.314454    0.000000    1.719459    -8.328121    -10.242226    0.000000    2.948123    -0.000001    9.520019    -5.629238    2.567278    -0.000000    2.215985    -0.000000    
